# 3ds Max Wavefront OBJ Exporter v0.97b - (c)2007 guruware
# File Created: 27.03.2011 14:56:04

mtllib Podium.mtl

#
# object Box001
#

v  -18.8547 0.1742 37.3762
v  -18.8547 0.1742 -0.6238
v  19.1453 0.1742 -0.6238
v  19.1453 0.1742 37.3762
v  19.1453 74.7776 36.5298
v  19.1453 61.0705 0.6804
v  -18.8547 61.0705 0.6804
v  -18.8547 74.7776 36.5298
v  -14.8547 4.3272 33.3762
v  15.1453 4.3272 33.3762
v  15.1453 51.3272 33.3762
v  -14.8547 51.3272 33.3762
v  15.1453 4.3272 3.3762
v  15.1453 51.3272 3.3762
v  -14.8547 4.3272 3.3762
v  -14.8547 51.3272 3.3762
v  -16.8547 4.1739 1.3762
v  -16.8547 4.1739 35.3762
v  17.1453 4.1739 1.3762
v  17.1453 4.1739 35.3762
v  -16.8547 2.1739 1.3762
v  -16.8547 2.1739 35.3762
v  17.1453 2.1739 1.3762
v  17.1453 2.1739 35.3762
v  -18.8547 2.1742 -0.6238
v  -18.8547 2.1742 37.3762
v  19.1453 2.1742 -0.6238
v  19.1453 2.1742 37.3762
v  17.1453 51.3272 35.3762
v  -16.8547 51.3272 35.3762
v  17.1453 51.3272 1.3762
v  -16.8547 51.3272 1.3762
v  17.1453 72.3272 35.3762
v  -16.8547 72.3272 35.3762
v  17.1453 59.3272 1.3762
v  -16.8547 59.3272 1.3762
v  19.1453 72.9095 37.2441
v  -18.8547 72.9095 37.2441
v  19.1453 58.4810 -0.4921
v  -18.8547 58.4810 -0.4921
v  19.1453 60.3491 -1.2064
v  -18.8547 60.3491 -1.2064
v  19.1453 61.2831 -1.5635
v  -18.8547 61.2831 -1.5635
v  -18.8547 62.0045 0.3233
v  19.1453 62.0045 0.3233
# 46 vertices

vn 0.0000 -1.0000 -0.0000
vn 0.0000 0.9341 -0.3571
vn 0.0000 0.0000 1.0000
vn 1.0000 0.0000 -0.0000
vn 0.0000 0.0000 -1.0000
vn -1.0000 0.0000 -0.0000
vn -0.0765 0.9971 -0.0000
vn 0.0000 0.9971 -0.0765
vn 0.0765 0.9971 -0.0000
vn 0.0000 0.9971 0.0765
vn 0.0002 1.0000 -0.0000
vn 0.0000 1.0000 0.0002
vn -0.0002 1.0000 -0.0000
vn 0.0000 1.0000 -0.0002
vn 0.0000 -0.9547 0.2976
vn -0.0615 -0.9323 0.3565
vn 0.0000 -0.9109 0.4126
vn 0.0615 -0.9323 0.3565
vn 0.0000 0.3571 0.9341
vn 0.0000 -0.3571 -0.9341
vn -0.0000 0.3571 0.9341
# 21 vertex normals

vt 0.0213 0.2616 0.0000
vt 0.0213 0.0461 0.0000
vt 0.2368 0.0461 0.0000
vt 0.2368 0.2616 0.0000
vt 0.7578 0.9337 0.0000
vt 0.7573 0.7182 0.0000
vt 0.9718 0.7182 0.0000
vt 0.9712 0.9337 0.0000
vt 0.7651 0.3251 0.0000
vt 0.9027 0.3251 0.0000
vt 0.9027 0.5406 0.0000
vt 0.7651 0.5406 0.0000
vt 0.3524 0.3251 0.0000
vt 0.4900 0.3251 0.0000
vt 0.4900 0.5406 0.0000
vt 0.3524 0.5406 0.0000
vt 0.6276 0.3251 0.0000
vt 0.6276 0.5406 0.0000
vt 0.0341 0.3412 0.0000
vt 0.0341 0.5314 0.0000
vt 0.0214 0.5440 0.0000
vt 0.0214 0.3285 0.0000
vt 0.2242 0.5314 0.0000
vt 0.2369 0.5440 0.0000
vt 0.2242 0.3412 0.0000
vt 0.2369 0.3285 0.0000
vt 0.2498 0.2996 0.0000
vt 0.0099 0.2996 0.0000
vt 0.0099 0.2855 0.0000
vt 0.2498 0.2855 0.0000
vt 0.9696 0.2996 0.0000
vt 0.7297 0.2996 0.0000
vt 0.7297 0.2855 0.0000
vt 0.9696 0.2855 0.0000
vt 0.4897 0.2996 0.0000
vt 0.4897 0.2855 0.0000
vt 0.2638 0.0604 0.0000
vt 0.2638 0.2532 0.0000
vt 0.2524 0.2646 0.0000
vt 0.2524 0.0491 0.0000
vt 0.4566 0.2532 0.0000
vt 0.4679 0.2646 0.0000
vt 0.4566 0.0604 0.0000
vt 0.4679 0.0491 0.0000
vt 0.7451 0.0274 0.0000
vt 0.5008 0.0274 0.0000
vt 0.5008 0.0145 0.0000
vt 0.7451 0.0145 0.0000
vt 0.2565 0.0274 0.0000
vt 0.2565 0.0145 0.0000
vt 0.0123 0.0274 0.0000
vt 0.0123 0.0145 0.0000
vt 0.9893 0.0274 0.0000
vt 0.9893 0.0145 0.0000
vt 0.0314 0.8348 0.0000
vt 0.2216 0.8348 0.0000
vt 0.2342 0.8475 0.0000
vt 0.0187 0.8475 0.0000
vt 0.2216 0.6446 0.0000
vt 0.2342 0.6320 0.0000
vt 0.0314 0.6446 0.0000
vt 0.0187 0.6320 0.0000
vt 0.4392 0.5736 0.0000
vt 0.6182 0.5736 0.0000
vt 0.6182 0.6842 0.0000
vt 0.4392 0.6842 0.0000
vt 0.7973 0.5736 0.0000
vt 0.7973 0.6158 0.0000
vt 0.9764 0.5736 0.0000
vt 0.9764 0.6158 0.0000
vt 0.2601 0.5736 0.0000
vt 0.2601 0.6158 0.0000
vt 0.4249 0.9245 0.0000
vt 0.6063 0.9245 0.0000
vt 0.6170 0.9349 0.0000
vt 0.4142 0.9349 0.0000
vt 0.6063 0.7303 0.0000
vt 0.6170 0.7194 0.0000
vt 0.4249 0.7303 0.0000
vt 0.4142 0.7194 0.0000
vt 0.7507 0.9566 0.0000
vt 0.9846 0.9566 0.0000
vt 0.9846 0.9689 0.0000
vt 0.7507 0.9689 0.0000
vt 0.0256 0.9567 0.0000
vt 0.2713 0.9566 0.0000
vt 0.2713 0.9689 0.0000
vt 0.2590 0.9688 0.0000
vt 0.0256 0.9688 0.0000
vt 0.5051 0.9566 0.0000
vt 0.5051 0.9689 0.0000
vt 0.5174 0.9688 0.0000
vt 0.7568 0.7011 0.0000
vt 0.9723 0.7011 0.0000
vt 0.9723 0.7126 0.0000
vt 0.7568 0.7126 0.0000
vt 0.7568 0.6954 0.0000
vt 0.9723 0.6954 0.0000
vt 0.8439 0.0820 0.0000
vt 0.9745 0.1320 0.0000
vt 0.9498 0.1967 0.0000
vt 0.8191 0.1467 0.0000
vt 0.5355 0.1360 0.0000
vt 0.6662 0.0860 0.0000
vt 0.6909 0.1507 0.0000
vt 0.5603 0.2007 0.0000
# 106 texture coords

g Box001
usemtl 02___Default
s 2
f 1/1/1 2/2/1 3/3/1 4/4/1 
s 4
f 5/5/2 6/6/2 7/7/2 8/8/2 
s 8
f 9/9/3 10/10/3 11/11/3 12/12/3 
s 16
f 10/13/4 13/14/4 14/15/4 11/16/4 
s 32
f 13/14/5 15/17/5 16/18/5 14/15/5 
s 64
f 15/17/6 9/9/6 12/12/6 16/18/6 
s off
f 9/19/7 15/20/7 17/21/7 18/22/7 
f 15/20/8 13/23/8 19/24/8 17/21/8 
f 13/23/9 10/25/9 20/26/9 19/24/9 
f 10/25/10 9/19/10 18/22/10 20/26/10 
f 18/27/6 17/28/6 21/29/6 22/30/6 
f 17/31/5 19/32/5 23/33/5 21/34/5 
f 19/32/4 20/35/4 24/36/4 23/33/4 
f 20/35/3 18/27/3 22/30/3 24/36/3 
f 22/37/11 21/38/11 25/39/11 26/40/11 
f 21/38/12 23/41/12 27/42/12 25/39/12 
f 23/41/13 24/43/13 28/44/13 27/42/13 
f 24/43/14 22/37/14 26/40/14 28/44/14 
f 26/45/6 25/46/6 2/47/6 1/48/6 
f 25/46/5 27/49/5 3/50/5 2/47/5 
f 27/49/4 28/51/4 4/52/4 3/50/4 
f 28/53/3 26/45/3 1/48/3 4/54/3 
f 12/55/1 11/56/1 29/57/1 30/58/1 
f 11/56/1 14/59/1 31/60/1 29/57/1 
f 14/59/1 16/61/1 32/62/1 31/60/1 
f 16/61/1 12/55/1 30/58/1 32/62/1 
f 30/63/3 29/64/3 33/65/3 34/66/3 
f 29/64/4 31/67/4 35/68/4 33/65/4 
f 31/67/5 32/69/5 36/70/5 35/68/5 
f 32/71/6 30/63/6 34/66/6 36/72/6 
f 34/73/15 33/74/15 37/75/15 38/76/15 
f 33/74/16 35/77/16 39/78/16 37/75/16 
f 35/77/17 36/79/17 40/80/17 39/78/17 
f 36/79/18 34/73/18 38/76/18 40/80/18 
f 38/81/19 37/82/19 5/83/19 8/84/19 
f 37/85/4 39/86/4 41/87/4 6/88/4 
f 37/85/4 6/88/4 5/89/4 
f 39/86/20 40/90/20 42/91/20 41/87/20 
f 40/90/6 38/81/6 8/84/6 7/92/6 
f 40/90/6 7/92/6 42/91/6 
s 4
f 43/93/2 44/94/2 45/95/2 46/96/2 
s off
f 41/97/20 42/98/20 44/94/20 43/93/20 
f 42/99/6 7/100/6 45/101/6 44/102/6 
f 7/7/21 6/6/21 46/96/21 45/95/21 
f 6/103/4 41/104/4 43/105/4 46/106/4 
# 43 polygons - 2 triangles

